<?xml version="1.0" standalone="no"?>
<!DOCTYPE svg PUBLIC "-//W3C//DTD SVG 20010904//EN"
 "http://www.w3.org/TR/2001/REC-SVG-20010904/DTD/svg10.dtd">
<svg version="1.0" xmlns="http://www.w3.org/2000/svg"
 width="256.000000pt" height="256.000000pt" viewBox="0 0 256.000000 256.000000"
 preserveAspectRatio="xMidYMid meet">
<metadata>
Created by potrace 1.14, written by Peter Selinger 2001-2017
</metadata>
<g transform="translate(0.000000,256.000000) scale(0.100000,-0.100000)"
fill="#000000" stroke="none">
<path d="M1160 2379 c-40 -68 -79 -130 -86 -138 -10 -11 -32 0 -131 72 -97 71
-119 83 -124 69 -4 -9 -4 -21 -1 -26 2 -5 -13 3 -34 18 l-39 26 -7 -57 c-7
-68 -15 -144 -24 -230 -4 -35 -7 -63 -8 -63 -3 0 -154 30 -176 35 -76 17 -110
22 -110 14 0 -4 -15 -3 -32 2 -18 5 -34 9 -35 9 -9 0 2 -42 48 -188 29 -89 50
-164 48 -166 -3 -2 -202 -47 -274 -62 -59 -12 -75 -16 -75 -21 0 -3 52 -63
115 -133 63 -71 115 -133 115 -138 0 -4 -63 -55 -140 -111 -77 -57 -140 -106
-140 -110 0 -3 28 -18 63 -33 34 -14 108 -48 163 -74 l101 -47 -89 -155 c-48
-85 -87 -157 -84 -159 2 -3 84 -6 183 -7 103 -1 177 -6 176 -12 0 -5 -4 -40
-7 -79 -4 -38 -8 -86 -11 -105 -12 -94 -15 -170 -8 -170 4 1 19 7 33 15 31 18
41 18 38 3 -4 -18 12 -13 140 43 63 27 117 49 122 49 5 0 32 -70 60 -156 l52
-156 27 26 28 26 12 -26 12 -27 63 69 c35 38 82 89 105 114 l41 45 55 -60 c31
-33 77 -84 103 -112 26 -29 50 -53 53 -53 4 0 10 12 13 26 l7 27 28 -27 28
-27 40 118 c22 65 46 135 53 155 6 21 15 38 20 38 5 0 65 -25 135 -55 133 -58
136 -59 134 -47 -3 20 4 21 32 7 17 -9 33 -14 36 -11 3 2 0 53 -6 113 -6 59
-14 135 -17 168 -3 33 -8 63 -11 68 -6 9 -14 9 185 12 96 2 176 5 178 8 3 2
-34 72 -81 154 -83 147 -95 173 -76 173 8 0 144 60 288 127 l33 15 -143 105
c-78 57 -143 108 -145 113 -2 5 49 68 114 140 64 72 115 133 112 135 -4 4 -92
25 -248 59 -8 2 -34 7 -57 11 -24 4 -43 10 -43 13 0 2 18 64 41 136 22 72 47
150 54 173 l13 43 -26 -6 c-15 -4 -29 -8 -31 -10 -2 -2 -9 0 -15 5 -9 7 -92
-7 -268 -45 -27 -6 -28 -5 -30 32 -2 50 -4 78 -12 134 -7 45 -14 119 -15 153
-1 23 -22 22 -48 -2 -23 -22 -33 -18 -33 11 0 20 -47 -10 -191 -119 -56 -42
-56 -42 -67 -20 -7 12 -25 45 -42 72 -16 28 -46 78 -66 112 -43 76 -51 82 -64
49 -12 -33 -21 -33 -41 1 l-17 26 -72 -124z"/>
<path d="M1493 2482 c-32 -5 -48 -28 -36 -54 8 -19 10 -20 26 -4 9 10 15 22
12 27 -4 5 -1 9 4 9 19 0 12 -45 -9 -58 -11 -7 -20 -19 -20 -26 0 -18 20 -32
29 -20 3 5 18 17 34 27 16 11 27 26 27 40 0 30 -39 64 -67 59z"/>
<path d="M999 2449 c0 -2 -2 -12 -4 -22 -2 -10 -11 -24 -21 -32 -17 -12 -16
-13 4 -19 13 -4 22 -16 22 -27 0 -22 18 -26 26 -5 3 8 16 13 30 11 27 -3 28
-1 14 26 -7 13 -7 25 -1 38 9 16 7 17 -14 13 -14 -2 -32 1 -40 8 -8 7 -15 11
-16 9z"/>
<path d="M591 2331 c-15 -10 -23 -123 -8 -118 6 2 16 19 23 38 22 61 15 98
-15 80z"/>
<path d="M1465 2331 c-8 -15 3 -31 21 -31 9 0 14 7 12 17 -4 20 -24 28 -33 14z"/>
<path d="M1937 2248 c1 -39 4 -73 7 -75 3 -3 33 12 66 32 69 42 69 38 -20 85
l-56 28 3 -70z"/>
<path d="M567 2193 c-13 -12 -7 -43 8 -43 9 0 15 9 15 25 0 24 -10 32 -23 18z"/>
<path d="M2281 1971 c-14 -9 -24 -121 -11 -121 10 0 40 75 40 100 0 23 -12 31
-29 21z"/>
<path d="M254 1949 c-25 -9 -37 -44 -20 -58 14 -12 36 4 36 27 0 7 5 10 10 7
15 -9 12 -21 -14 -52 -16 -19 -22 -34 -16 -43 7 -11 11 -10 24 3 9 9 25 18 35
22 24 7 32 49 15 74 -16 23 -43 31 -70 20z"/>
<path d="M2257 1833 c-13 -12 -7 -43 8 -43 9 0 15 9 15 25 0 24 -10 32 -23 18z"/>
<path d="M237 1796 c-7 -16 1 -26 20 -26 7 0 13 9 13 20 0 23 -25 27 -33 6z"/>
<path d="M2380 1515 c-15 -18 -9 -50 10 -50 8 0 16 10 18 23 2 12 8 20 13 17
14 -9 11 -32 -8 -51 -10 -9 -18 -26 -19 -38 -1 -12 -5 -29 -9 -39 -9 -23 12
-49 23 -29 5 6 7 25 6 42 -2 23 2 30 15 30 28 0 54 35 46 62 -4 13 -12 29 -17
36 -14 17 -63 15 -78 -3z"/>
<path d="M90 1410 l0 -79 66 41 c36 22 61 44 57 48 -4 4 -34 21 -65 38 l-58
32 0 -80z"/>
<path d="M130 1008 c0 -14 -7 -28 -15 -32 -19 -7 -19 -26 0 -26 8 0 17 -11 21
-25 6 -24 8 -25 23 -10 10 8 28 15 40 15 19 0 20 3 11 20 -6 12 -8 30 -4 42 5
18 3 20 -17 15 -15 -4 -30 0 -41 10 -17 15 -18 14 -18 -9z"/>
<path d="M2280 1008 c0 -14 -7 -28 -15 -32 -21 -8 -19 -24 5 -31 12 -4 20 -15
20 -27 0 -20 1 -20 18 -5 10 10 29 17 42 17 19 0 20 2 10 15 -7 8 -10 27 -7
41 4 22 2 25 -16 20 -12 -3 -29 2 -39 11 -17 15 -18 14 -18 -9z"/>
<path d="M393 622 c-26 -4 -39 -37 -23 -57 15 -18 30 -10 30 16 0 10 5 19 10
19 17 0 11 -36 -10 -55 -11 -10 -19 -27 -19 -39 0 -11 -2 -31 -6 -43 -6 -17
-3 -23 8 -23 22 0 31 18 17 35 -10 11 -10 15 -1 15 7 0 10 4 7 9 -3 5 7 14 24
19 33 12 48 49 31 80 -11 21 -34 30 -68 24z"/>
<path d="M2079 602 c-6 -34 -2 -142 4 -142 11 0 128 72 125 76 -13 12 -128 71
-129 66z"/>
<path d="M1742 333 c-12 -24 -16 -113 -5 -113 13 0 46 97 39 115 -7 20 -23 19
-34 -2z"/>
<path d="M750 225 c0 -42 3 -75 8 -73 29 13 122 71 122 76 0 6 -81 52 -122 70
-5 2 -8 -31 -8 -73z"/>
<path d="M1249 213 c-1 -4 -2 -13 -3 -20 0 -7 -10 -18 -20 -26 -19 -14 -19
-15 2 -21 12 -4 25 -19 28 -32 6 -25 7 -25 21 -4 8 11 18 18 22 16 4 -3 13 -1
21 4 11 7 12 12 3 21 -8 8 -9 19 -2 36 8 21 7 24 -11 18 -10 -3 -28 -1 -40 5
-11 6 -21 7 -21 3z"/>
<path d="M1716 193 c-9 -22 10 -41 25 -26 13 13 5 43 -10 43 -5 0 -12 -8 -15
-17z"/>
</g>
</svg>
